<svg id="Layer_1" data-name="Layer 1" xmlns="http://www.w3.org/2000/svg" viewBox="0 0 1174.314 639.498">
  <path d="M67.327,639.5c-43.917,0-76.346-43.692-65.071-86.137,18-67.773,35.228-156.577,179.379-199.676,191.453-57.24,180.72-287.961,333.638-287.961S669,182.894,714.589,194.81s198.425-23.471,232.565,80.981c63.107,193.079,147.814,100,213.551,248.686a261.539,261.539,0,0,1,10.6,28.6c13.246,42.936-18.91,86.422-63.843,86.422Z" fill="#f3f5fd"></path>
  <g>
    <polygon points="926.04 290.288 647.785 454.443 369.531 290.288 647.785 52.628 926.04 290.288" fill="#9ebcea"></polygon>
    <g>
      <rect x="422.581" width="442.24" height="573.693" fill="#c1d8ed"></rect>
      <rect x="463.343" y="133.445" width="360.716" height="13.659" fill="#fff"></rect>
      <rect x="463.343" y="336.024" width="360.716" height="13.659" fill="#fff"></rect>
      <rect x="463.343" y="173.961" width="360.716" height="13.659" fill="#fff"></rect>
      <rect x="463.343" y="214.477" width="360.716" height="13.659" fill="#fff"></rect>
      <rect x="463.343" y="254.992" width="360.716" height="13.659" fill="#fff"></rect>
      <rect x="463.343" y="295.508" width="360.716" height="13.659" fill="#fff"></rect>
      <rect x="511.067" y="498.087" width="265.267" height="13.659" fill="#fff"></rect>
      <rect x="463.343" y="376.54" width="360.716" height="13.659" fill="#fff"></rect>
      <rect x="463.343" y="417.055" width="360.716" height="13.659" fill="#fff"></rect>
      <rect x="463.343" y="457.571" width="360.716" height="13.659" fill="#fff"></rect>
      <rect x="463.343" y="61.947" width="360.716" height="37.246" fill="#fff"></rect>
    </g>
    <polygon points="926.04 290.288 926.04 639.498 369.531 639.498 369.531 290.288 647.785 454.443 926.04 290.288" fill="#dee8f5"></polygon>
  </g>
  <g>
    <g>
      <g>
        <path d="M297.186,227.045s7.732-4.1,6.006-25.157l15.976-2.962s-1.8,18.878,6.287,24.872Z" fill="#E98862"></path>
        <path d="M294.127,193.723c1.106,6.389,4.592,12.438,10.227,14.5,6.69,2.45,11.645,2.615,19.358,2.615,10.525,0,10.177-10.976,10.472-22.038.3-11.106-.586-23.018-4.746-26.888-8.3-7.725-32.673-2.833-35.637,10.087C292.268,178.683,293.074,187.643,294.127,193.723Z" fill="#E98862"></path>
      </g>
      <path d="M341.481,157.313c0-5.282-6.574-13.937-24.111-2l-.018.012a49.821,49.821,0,0,0-13.529,1.479c-8.02,2.4-18.076,9.123-15.5,25.425,1.537,9.71,4.282,16.053,7.188,20.7a28.022,28.022,0,0,0,6.787,7.354c4.27,2.6,21.965,3.6,28.2-.379,4.558-2.912,5.319-15.07,3.6-15.07-1.19,0-1.288-.05-2.627-.05-2.446,0-2.69-14.567-3.151-21.012a8.344,8.344,0,0,1,1.135-.079C340.965,173.687,341.481,162.234,341.481,157.313Z" fill="#0f1011"></path>
      <path d="M326.267,195.092a6.133,6.133,0,0,1-6.27-5.63,6.032,6.032,0,0,1,5.56-6.62C325.7,187.2,325.927,191.792,326.267,195.092Z" fill="#E98862"></path>
    </g>
    <path d="M364.884,628.679l-20.853-2.48c.939-7.893,2-17.373,2.071-18.928,0,.1,0,.182,0,.245h21C367.1,608.146,367.1,610.061,364.884,628.679Z" fill="#E98862"></path>
    <path d="M281.208,631.189l-21-.068s.071-21.685.071-23.605h21C281.279,609.442,281.208,631.189,281.208,631.189Z" fill="#E98862"></path>
    <g>
      <path d="M250.8,366.1c0,2.98,1.573,12.943-.958,13.655-1.517.426-3.309-7-3.309-7" fill="#E98862"></path>
      <path d="M238.847,364.534s-8.264,20.114,1.162,31.669a1.888,1.888,0,0,0,3.346-1.081c.458-7.792,2.029-23.8,7.166-21.925V360.633" fill="#E98862"></path>
    </g>
    <path d="M352.04,243.617s-10.287-10.558-10.678-13.928,8.491-8.764,8.491-8.764-9.339-12.177-7-13.471c2.759-1.526,13.191,15.783,13.191,15.783s-1.036-5.881,1.2-5.971c.919-.037,1.52.938,2.417,5.12,1.022,4.765,3.352,12.037,3.352,12.037Z" fill="#E98862"></path>
    <path d="M335.637,622.048l36.994-.63c-1.737-44.032-1.844-90.219-2.386-134.357-7.22-47.574-11.023-99.816-19.935-147.049l-.267.079-.781-5.33-76.077-4.7-2.727,49.7c-3.972,71.393-11.143,171.95-15.662,241.087l36.869,3.116c6.643-67.786,16.923-166.557,23.246-237.767,7.26,34.669,12.2,70.568,18.514,104.94C334.688,534.17,335.755,579.149,335.637,622.048Z" fill="#262626"></path>
    <path d="M306.737,639.311a4.107,4.107,0,0,0,4.076-4.427h0a4.108,4.108,0,0,0-2.658-3.529l-24.443-8.187a3.461,3.461,0,0,0-2.872.32,19.112,19.112,0,0,1-11.468,3.4,17.031,17.031,0,0,1-8.82-3.222,1.547,1.547,0,0,0-2.528,1.2V636.82a2.678,2.678,0,0,0,2.689,2.678Z" fill="#c1d8ed"></path>
    <path d="M390.471,639.311a4.108,4.108,0,0,0,4.076-4.427h0a4.107,4.107,0,0,0-2.659-3.529l-24.442-8.187a3.463,3.463,0,0,0-2.873.32,19.108,19.108,0,0,1-11.467,3.4,17.035,17.035,0,0,1-8.821-3.222,1.546,1.546,0,0,0-2.527,1.2V636.82a2.678,2.678,0,0,0,2.689,2.678Z" fill="#c1d8ed"></path>
    <path d="M394.023,289.309l-29.957-58.781-10.595,5.4-2.8-3.66c-3.064-5.571-8.7-9.165-18.5-9.586-4.015-.172-23.606-.2-37.95-.2-9.636,0-17.547,2.957-22.116,7.526a20.144,20.144,0,0,0-5.021,8.129l-.138-.051L244,300.5a10.959,10.959,0,0,0-.552,2.162l-9.264,62.415,21.569,3.2,9.1-61.306,9.27-25.206a53.351,53.351,0,0,1,1.572,11.837c0,21-9.5,30.418-8.8,41.195,1.1,16.945,83.429,12.942,87.623,3.317,4.32-9.927-4.447-16.042-4.062-48.51a186.737,186.737,0,0,1,1.655-19.539l23.538,30.815a10.9,10.9,0,0,0,18.377-11.569Z" fill="#367CFF"></path>
  </g>
  <path d="M1042.894,633.149c19.806-6.138,39.022-14.159,56.532-36.609,3.593-4.6,6.969-10.494,5-16-1.481-4.144-5.768-6.8-10.124-7.477a20.954,20.954,0,0,0-4.9-.134c-.009,0-.017,0-.019,0a41.258,41.258,0,0,0-7.414,1.454l-.691.2a122.083,122.083,0,0,0-32.669,14.754,4.811,4.811,0,0,1-6.7-6.55,29.135,29.135,0,0,1,3.58-4.7,46.272,46.272,0,0,1,6.514-5.648c3.114-2.272,6.437-4.3,9.687-6.374a268.332,268.332,0,0,0,34.241-25.875c7.64-6.806,15.112-14.359,18.743-23.928,1.668-4.4,2.427-9.473.437-13.737-3.284-7-12.586-8.962-20.193-7.509-13.33,2.553-23.979,12.324-33.422,22.063-7.831,8.093-16.606,17.054-27.857,17.551a9.85,9.85,0,0,1-5.546-1.112c-3.21-1.944-4.034-6.448-2.891-10.024s3.791-6.434,6.346-9.178c14.851-15.932,29.465-32.506,39.109-52.028s13.914-42.572,7.213-63.3c-1.964-6.06-4.916-11.956-9.521-16.358s-11.064-7.162-17.386-6.319c-8.613,1.134-15.1,8.4-19.464,15.908-15,25.754-14.083,57.308-18.308,86.808-1.182,8.259-2.9,16.729-7.82,23.528a5.569,5.569,0,0,1-1.725,1.609c-4.048,2.344-7.681-2.382-9.2-6.394-6-15.868-7.5-34.016-18.243-47.15-4.1-5-9.9-9.179-16.365-9.138-7.895.054-14.655,6.649-16.958,14.2s-.926,15.757,1.542,23.256c4.582,13.906,12.8,26.4,22.472,37.379,5.1,5.8,10.871,11.656,12.4,19.219a15.333,15.333,0,0,1-4.813,14.133,8.982,8.982,0,0,1-6.655,2.176c-2.591-.237-4.936-1.559-7.2-2.844-.948-.54-1.9-1.088-2.857-1.625q-5.66-3.222-11.321-6.453c-9.6-5.474-21.181-11.067-31.176-6.353-5.105,2.41-8.441,7.149-10.013,12.586a27.541,27.541,0,0,0,0,15.1c2.977,10.263,21.741,38.822,29.481,46.187C943.782,617.044,975.127,654.152,1042.894,633.149Z" fill="#8ddbe0"></path>
  <g>
    <g>
      <g>
        <rect x="222.552" y="547.478" width="9.354" height="92.02" transform="translate(454.459 1186.977) rotate(-180)" fill="#c1d8ed"></rect>
        <rect x="230.251" y="547.478" width="9.354" height="92.02" transform="translate(469.855 1186.977) rotate(-180)" fill="#dee8f5"></rect>
      </g>
      <g>
        <rect x="106.042" y="547.478" width="9.354" height="92.02" transform="translate(221.439 1186.977) rotate(-180)" fill="#c1d8ed"></rect>
        <rect x="113.741" y="547.478" width="9.354" height="92.02" transform="translate(236.835 1186.977) rotate(-180)" fill="#dee8f5"></rect>
      </g>
      <g>
        <rect x="196.897" y="547.478" width="9.354" height="92.02" transform="translate(403.148 1186.977) rotate(-180)" fill="#c1d8ed"></rect>
        <rect x="204.595" y="547.478" width="9.354" height="92.02" transform="translate(418.544 1186.977) rotate(-180)" fill="#dee8f5"></rect>
      </g>
      <g>
        <rect x="80.387" y="547.478" width="9.354" height="92.02" transform="translate(170.127 1186.977) rotate(-180)" fill="#c1d8ed"></rect>
        <rect x="88.085" y="547.478" width="9.354" height="92.02" transform="translate(185.524 1186.977) rotate(-180)" fill="#dee8f5"></rect>
      </g>
      <rect x="80.387" y="488.577" width="125.806" height="61.108" fill="#c1d8ed"></rect>
      <rect x="113.799" y="488.577" width="125.806" height="61.108" fill="#dee8f5"></rect>
      <g opacity="0.53">
        <rect x="120.567" y="497.264" width="112.27" height="43.464" fill="#f3f5fd"></rect>
      </g>
      <circle cx="176.702" cy="518.996" r="4.986" fill="#fff"></circle>
    </g>
    <g>
      <rect x="181.779" y="429.241" width="9.767" height="51.794" transform="translate(109.727 -30.737) rotate(13.302)" fill="#f0f6ff"></rect>
      <g>
        <rect x="176.172" y="425.013" width="5.366" height="44.988" transform="translate(-78.213 39.87) rotate(-10.452)" fill="#c1d8ed"></rect>
        <rect x="172.555" y="425.343" width="5.366" height="4.967" transform="translate(-76.891 40.303) rotate(-10.775)" fill="#dee8f5"></rect>
      </g>
      <rect x="163.335" y="456.851" width="46.655" height="3.15" transform="translate(-308.277 464.074) rotate(-68.498)" fill="#0cbc8b"></rect>
      <rect x="171.716" y="455.138" width="25.778" height="32.945" fill="#262626"></rect>
    </g>
  </g>
  <g>
    <rect x="136.416" y="101.969" width="67.937" height="82.521" transform="translate(340.77 286.459) rotate(-180)" fill="#c1d8ed"></rect>
    <rect x="139.078" y="101.969" width="67.937" height="82.521" transform="translate(346.093 286.459) rotate(-180)" fill="#dee8f5"></rect>
    <rect x="144.767" y="107.658" width="56.559" height="71.142" transform="translate(346.093 286.459) rotate(-180)" fill="#fff"></rect>
    <g>
      <rect x="160.279" y="119.096" width="30.247" height="35.385" transform="translate(350.805 273.578) rotate(-180)" fill="#c1d8ed"></rect>
      <rect x="150.957" y="145.492" width="21.871" height="21.871" rx="10.935" transform="translate(323.786 312.854) rotate(-180)" fill="#dee8f5"></rect>
      <rect x="150.957" y="134.531" width="24.445" height="4.827" transform="translate(326.36 273.889) rotate(-180)" fill="#f3f5fd"></rect>
    </g>
  </g>
</svg>